<?xml version="1.0" encoding="UTF-8" standalone="no"?>
<svg
   version="1.1"
   width="1074.8232"
   height="311.45447"
   id="svg111"
   xmlns="http://www.w3.org/2000/svg"
   xmlns:svg="http://www.w3.org/2000/svg">
  <defs
     id="defs115" />
  <g
     id="g405"
     transform="matrix(2.0356502,0,0,2.0356502,-30.971217,-440.4494)">
    <path
       d="m 348.21441,216.36792 h 32 l 22,4 21,7 18,8 23,12 18,11 7,5 -2,1 -20,-8 -25,-7 -16,-3 -22,-2 h -22 l -26,3 -24,6 -19,7 -16,8 -13,7 -12,8 -14,9 -16,8 -20,8 -21,6 -22,4 -11,1 h -31 l -27,-4 -23,-6 -18,-7 -25,-12 -24,-15 -3,-3 4,1 21,9 18,6 23,5 13,2 15,1 h 14 l 23,-2 24,-5 24,-8 22,-10 22,-13 21,-12 22,-11 22,-9 20,-6 z"
       fill="#0a84c1"
       id="path63" />
    <path
       d="m 403.21441,266.36792 h 22 l 21,3 21,6 19,8 16,8 18,10 19,12 -2,1 -24,-9 -23,-6 -26,-4 -23,-1 -26,2 -20,4 -20,6 -20,8 -17,9 -24,16 -23,12 -20,8 -22,6 -26,4 h -38 l -22,-3 -23,-6 -17,-6 -24,-11 -17,-10 -13,-9 2,-1 17,8 21,7 22,5 24,3 h 27 l 24,-3 21,-5 20,-7 22,-10 22,-13 21,-12 22,-11 23,-9 20,-6 16,-3 z"
       fill="#0a84c0"
       id="path65" />
    <path
       d="m 66.21441,321.36792 3,1 h -3 z"
       fill="#7f939e"
       id="path93" />
    <path
       d="m 541.21441,315.36792 2,1 z"
       fill="#829090"
       id="path95" />
    <path
       d="m 539.21441,314.36792 2,1 z"
       fill="#5f787d"
       id="path97" />
    <path
       d="m 491.21441,265.36792 2,1 z"
       fill="#88a1a3"
       id="path99" />
    <path
       d="m 489.21441,264.36792 2,1 z"
       fill="#6d9296"
       id="path101" />
    <path
       d="M 543.21441,316.36792 Z"
       fill="#8d9c9f"
       id="path103" />
    <path
       d="M 16.21441,271.36792 Z"
       fill="#7f9498"
       id="path105" />
    <path
       d="M 15.21441,270.36792 Z"
       fill="#8f9fa3"
       id="path107" />
    <path
       d="M 493.21441,266.36792 Z"
       fill="#8fa19d"
       id="path109" />
  </g>
</svg>
